<?xml version="1.0" standalone="no"?>
<!DOCTYPE svg PUBLIC "-//W3C//DTD SVG 20010904//EN"
 "http://www.w3.org/TR/2001/REC-SVG-20010904/DTD/svg10.dtd">
<svg version="1.0" xmlns="http://www.w3.org/2000/svg"
 width="432.000000pt" height="500.000000pt" viewBox="0 0 432.000000 500.000000"
 preserveAspectRatio="xMidYMid meet">
<metadata>
Created by potrace 1.14, written by Peter Selinger 2001-2017
</metadata>
<g transform="translate(430.000000,500.000000) scale(0.100000,-0.100000) scale(-1, 1)"
fill="#000000" stroke="none">
<path d="M2099 4855 c-112 -19 -185 -42 -272 -87 -106 -55 -169 -114 -209
-196 -32 -66 -33 -69 -32 -197 1 -78 8 -159 18 -203 19 -89 70 -200 120 -266
l38 -48 -39 -40 c-77 -80 -216 -160 -378 -218 -123 -43 -314 -92 -328 -83 -7
4 -39 28 -73 55 -222 174 -504 181 -634 16 -237 -299 -238 -722 -2 -1125 42
-72 195 -274 316 -419 114 -135 123 -156 271 -615 l27 -85 -48 -65 c-114 -149
-164 -348 -164 -644 0 -178 15 -314 38 -345 32 -42 166 -76 392 -97 l85 -8
-30 -17 c-28 -15 -29 -17 -10 -25 43 -18 296 -9 435 16 74 13 136 24 137 25 2
2 -16 49 -38 107 -22 57 -76 198 -119 314 -151 407 -238 576 -352 687 -95 93
-186 116 -275 70 -33 -17 -41 -19 -36 -7 8 23 57 45 98 45 33 0 36 2 29 23
-23 76 -95 224 -143 297 -63 96 -253 352 -370 500 -289 362 -372 567 -358 880
10 207 68 361 179 472 77 77 136 97 246 81 156 -23 262 -82 403 -224 120 -120
185 -224 329 -529 107 -227 133 -273 180 -324 122 -131 264 -143 371 -29 45
47 73 90 233 367 157 270 208 371 236 467 13 40 29 81 36 90 8 8 14 18 14 21
0 3 -36 -3 -81 -13 -45 -11 -136 -28 -203 -39 -67 -11 -141 -26 -165 -35 -51
-18 -135 -76 -268 -187 -58 -48 -130 -96 -178 -120 -44 -21 -91 -47 -105 -58
l-25 -20 38 0 c20 0 37 -3 37 -7 0 -19 -44 -112 -51 -107 -8 4 -169 327 -169
338 0 10 202 141 295 192 259 142 474 211 729 235 111 11 321 4 345 -11 16 -9
6 -83 -49 -357 -37 -184 -66 -390 -58 -414 2 -7 54 49 115 122 145 174 178
209 238 256 64 48 148 88 170 79 9 -3 28 -31 42 -62 44 -97 37 -123 -119 -469
-178 -393 -189 -417 -193 -413 -5 5 100 398 123 460 10 29 22 70 26 91 4 21
16 47 28 59 l21 21 -39 -7 c-22 -4 -76 -25 -122 -47 -181 -88 -372 -336 -428
-559 -21 -82 -15 -197 13 -261 44 -98 135 -166 241 -176 54 -6 54 -6 27 -20
-15 -8 -25 -16 -23 -18 2 -3 60 -20 127 -40 203 -58 304 -125 360 -237 36 -71
39 -115 12 -174 -75 -166 -357 -310 -673 -343 -102 -11 -220 -7 -263 9 l-20 8
20 7 c103 39 156 68 295 161 165 110 202 143 228 204 30 72 -7 210 -76 283
-15 16 -67 58 -117 95 -49 36 -124 99 -166 139 -93 88 -185 136 -320 163 -128
27 -163 24 -59 -5 114 -31 180 -58 245 -99 47 -31 75 -56 61 -56 -3 0 -52 12
-108 27 -87 23 -123 27 -233 27 -145 0 -184 -11 -228 -64 -69 -82 -62 -266 16
-415 43 -83 163 -200 252 -247 96 -50 164 -68 268 -69 48 -1 87 -5 87 -9 0
-13 -131 -71 -198 -86 -80 -19 -243 -21 -327 -5 -164 33 -351 110 -455 187
-132 100 -246 292 -285 480 -19 94 -19 280 0 362 17 70 79 212 92 212 13 0 57
-48 83 -90 l22 -35 -7 45 c-9 65 -44 103 -153 167 -260 152 -376 256 -436 394
-20 47 -21 9 -1 -57 39 -131 176 -264 373 -363 45 -23 82 -43 82 -46 0 -2 -9
-19 -19 -37 -32 -54 -69 -177 -81 -271 -22 -163 20 -385 102 -538 69 -131 162
-227 309 -321 42 -26 80 -58 86 -70 5 -13 8 -62 5 -109 -3 -53 0 -94 7 -105 9
-17 10 -17 11 6 1 62 15 57 108 -35 74 -75 122 -140 284 -385 187 -283 242
-358 219 -297 -6 14 -42 79 -82 144 -40 65 -99 168 -132 228 -90 166 -151 249
-269 368 -59 59 -105 113 -103 120 13 47 8 46 95 21 53 -15 133 -28 222 -34
77 -6 181 -20 231 -31 268 -57 535 -25 770 92 217 109 297 205 297 359 0 92
-21 142 -84 204 -60 58 -184 130 -290 168 l-86 31 6 41 c33 238 69 347 224
666 161 332 184 396 185 510 0 120 -15 144 -203 327 -85 84 -154 155 -151 157
2 2 59 -38 127 -89 l123 -94 112 0 c129 1 197 -19 281 -79 112 -81 192 -286
141 -359 -21 -30 -229 -149 -304 -174 -35 -12 -59 -25 -54 -29 13 -13 146 -30
230 -30 242 1 449 120 550 316 40 77 75 174 88 244 13 66 21 64 51 -14 16 -42
31 -76 35 -76 3 0 9 21 13 46 31 229 -42 436 -234 666 l-31 37 57 -19 c97 -34
97 -27 6 64 -151 150 -342 232 -617 266 -49 6 -110 14 -135 17 l-45 6 33 14
c19 8 82 22 140 32 101 18 105 19 77 30 -51 21 -148 41 -196 41 -184 0 -465
-110 -724 -284 -69 -47 -125 -83 -125 -81 0 2 15 43 34 92 79 208 103 400 63
505 -22 56 -81 113 -134 127 -49 14 -158 12 -254 -4z m-60 -248 c59 -29 97
-79 116 -152 28 -111 13 -282 -35 -376 -35 -67 -116 -141 -202 -183 -98 -49
-116 -44 -175 44 -92 136 -149 375 -123 509 12 63 26 82 97 128 103 66 228 78
322 30z m1073 -197 c-18 -11 -73 -40 -122 -65 -89 -45 -126 -74 -79 -62 187
47 535 27 729 -41 80 -29 174 -71 168 -77 -3 -3 -52 4 -108 15 -57 11 -106 18
-108 16 -2 -3 9 -12 25 -22 201 -125 313 -222 392 -339 45 -68 117 -222 108
-231 -2 -3 -17 15 -33 38 l-29 43 -6 -131 c-20 -399 -217 -640 -549 -672 -44
-5 -80 -6 -80 -3 0 4 28 21 63 40 175 96 277 295 248 486 -28 188 -128 330
-312 444 -91 56 -91 57 -4 36 80 -19 85 -18 50 6 -53 36 -178 96 -245 117
-133 42 -172 47 -350 47 -163 -1 -184 -3 -301 -32 -69 -18 -160 -46 -203 -63
-43 -17 -81 -29 -83 -26 -7 7 189 177 276 240 158 113 336 203 470 236 104 25
125 25 83 0z m-792 -1067 c-33 -82 -42 -98 -183 -343 -50 -85 -91 -156 -91
-157 -1 0 -30 21 -66 48 -122 93 -287 159 -399 159 -28 0 -51 4 -51 8 0 5 45
21 100 37 63 18 96 32 88 37 -7 4 -22 8 -32 8 -17 0 -16 4 10 31 56 59 180
152 239 180 43 21 108 36 235 57 96 16 176 25 178 21 2 -4 -11 -43 -28 -86z
m-495 -402 c55 -27 122 -69 149 -93 l49 -44 -43 -82 c-62 -116 -108 -173 -160
-199 -56 -29 -91 -29 -148 -1 -57 29 -110 89 -172 198 -38 67 -50 97 -50 130
0 36 2 41 18 35 58 -25 71 -27 97 -21 26 7 75 49 117 104 10 12 24 22 30 22 7
0 58 -22 113 -49z m1029 -72 c-72 -201 -113 -368 -138 -558 -8 -62 -17 -115
-19 -117 -2 -3 -15 23 -27 57 -33 88 -93 172 -147 208 -26 17 -52 31 -59 31
-26 0 -24 21 7 82 88 174 213 309 354 381 46 23 50 24 53 7 2 -9 -9 -51 -24
-91z m-259 -544 c30 -51 99 -271 91 -290 -4 -10 -20 -15 -51 -15 -112 0 -230
117 -238 235 -2 38 -1 39 35 46 43 7 73 30 95 73 15 29 16 29 30 10 8 -10 25
-37 38 -59z m-322 -371 c141 -31 295 -128 327 -204 10 -25 10 -34 -4 -55 -22
-34 -54 -45 -130 -45 -129 0 -287 59 -383 144 -143 126 -42 212 190 160z"/>
<path d="M1896 2356 c105 -28 180 -64 318 -153 54 -35 101 -61 105 -57 3 3
-21 31 -54 61 -103 94 -292 174 -410 173 -49 -1 -49 -1 41 -24z"/>
</g>
</svg>
